<?xml version="1.0" encoding="utf-8"?>
<svg viewBox="0 0 132.3 132.3" xmlns="http://www.w3.org/2000/svg" xmlns:bx="https://boxy-svg.com">
  <defs>
    <bx:grid x="0" y="0" width="18.856" height="16.504"/>
  </defs>
  <path fill="#1a73e8" d="M 80.15 2.15 C 75.75 0.75 70.95 -0.05 66.05 -0.05 C 51.95 -0.05 39.25 6.35 30.75 16.45 L 52.55 34.75 L 80.15 2.15 Z"/>
  <path fill="#ea4335" d="M 30.75 16.45 C 24.05 24.45 19.95 34.85 19.95 46.05 C 19.95 54.75 21.65 61.75 24.55 68.05 L 52.55 34.75 L 30.75 16.45 Z"/>
  <path fill="#4285f4" d="M 66.15 28.45 C 75.95 28.45 83.85 36.35 83.85 46.15 C 83.85 50.45 82.25 54.45 79.65 57.55 C 79.65 57.55 93.55 40.95 107.15 24.85 C 101.55 14.05 91.85 5.85 80.15 2.15 L 52.55 34.75 C 55.85 30.95 60.65 28.45 66.15 28.45"/>
  <path fill="#fbbc04" d="M 66.15 63.75 C 56.35 63.75 48.45 55.85 48.45 46.05 C 48.45 41.75 49.95 37.75 52.55 34.75 L 24.55 68.05 C 29.35 78.65 37.35 87.25 45.55 97.95 L 79.65 57.45 C 76.35 61.35 71.55 63.75 66.15 63.75"/>
  <path fill="#34a853" d="M 79.05 109.15 C 94.45 85.05 112.35 74.15 112.35 46.15 C 112.35 38.45 110.45 31.25 107.15 24.85 L 45.55 97.95 C 48.15 101.35 50.85 105.25 53.45 109.25 C 62.85 123.75 60.25 132.35 66.25 132.35 C 72.25 132.35 69.65 123.65 79.05 109.15"/>
</svg>