<?xml version="1.0" encoding="utf-8"?>
<svg viewBox="0 0 108 108" xmlns="http://www.w3.org/2000/svg">
  <g transform="matrix(1, 0, 0, 1, 0.004007, 3.986451)">
    <path fill="#fff" d="M 58.9 83.8 L 49 83.8 C 47.9 78.3 43 74.1 37.2 74.1 C 32.9 74.1 29.2 76.3 27 79.6 L 27 79.7 C 23.4 77.9 20.1 75.4 17.3 72.5 C 13.9 69.1 12 66 11.2 64 C 13.4 63.5 15.4 62.3 17 60.6 C 19.1 58.4 20.2 55.4 20.2 52.4 L 20.2 45.2 C 20.2 36.7 23 28.3 28.3 21.6 C 35.8 12 46.9 6.6 58.9 6.6 C 69.2 6.6 78.9 10.6 86.2 17.9 C 93.5 25.2 97.5 34.9 97.5 45.2 C 97.5 55.5 93.5 65.2 86.2 72.5 C 78.944 79.716 69.133 83.777 58.9 83.8 L 58.9 83.8 Z"/>
    <path d="M 102.3 45.1 C 102.3 33.5 97.8 22.6 89.6 14.4 C 81.427 6.307 70.402 1.746 58.9 1.7 C 45.6 1.7 33.2 7.7 24.7 18.4 C 18.6 26.1 15.4 35.6 15.4 45.4 L 15.4 52.4 C 15.4 56 12.9 59.4 7.9 59.7 C 6.7 59.8 5.7 60.6 5.7 61.8 C 5.5 65.1 9 71.1 13.8 75.9 C 17.1 79.3 21 82 25.2 84.1 C 23.88 91.506 29.577 98.305 37.1 98.3 C 43 98.3 47.8 94.2 48.9 88.7 L 59 88.7 C 60.3 95.5 67.4 100.2 75 97.6 C 81.6 95.4 84.5 87.9 82.1 81.8 C 84.7 80.1 87.2 78.1 89.5 75.9 C 97.718 67.761 102.329 56.666 102.3 45.1 L 102.3 45.1 Z M 58.9 83.8 L 49 83.8 C 47.9 78.3 43 74.1 37.2 74.1 C 32.9 74.1 29.2 76.3 27 79.6 L 27 79.7 C 23.4 77.9 20.1 75.4 17.3 72.5 C 13.9 69.1 12 66 11.2 64 C 13.4 63.5 15.4 62.3 17 60.6 C 19.1 58.4 20.2 55.4 20.2 52.4 L 20.2 45.2 C 20.2 36.7 23 28.3 28.3 21.6 C 35.8 12 46.9 6.6 58.9 6.6 C 69.2 6.6 78.9 10.6 86.2 17.9 C 93.5 25.2 97.5 34.9 97.5 45.2 C 97.5 55.5 93.5 65.2 86.2 72.5 C 78.944 79.716 69.133 83.777 58.9 83.8 L 58.9 83.8 Z"/>
    <circle cx="78.2" cy="35.5" r="4.8"/>
    <circle cx="49.2" cy="35.5" r="4.8"/>
    <path d="M 50.7 51.3 C 50.3 50.5 49.4 49.9 48.5 49.9 C 46.743 49.887 45.568 51.703 46.3 53.3 C 49.4 59.8 56 64.4 63.8 64.4 C 71.6 64.4 78.2 59.9 81.3 53.3 C 82 51.7 80.9 49.9 79.1 49.9 L 79 49.9 C 78.1 49.9 77.3 50.4 76.9 51.3 C 74.6 56.2 69.6 59.6 63.8 59.6 C 58 59.6 53 56.2 50.7 51.3 Z"/>
  </g>
</svg>